# xmcd CD database file
# Copyright (C) 1996 Ti Kan
#
# Track frame offsets:
# 	150
# 	13273
# 	25615
# 	36315
# 	53903
# 	66053
# 	79740
# 	90813
# 	104693
# 	117995
# 	132595
# 	153840
# 	164238
# 	177840
# 	188883
# 	199065
# 	212330
# 	225358
# 	239160
# 	252568
#
# Disc length: 3511 seconds
#
# Revision: 1
# Processed by: cddbd v1.4b41PL1 Copyright (c) Steve Scherf et al.
# Submitted via: DiscPlay 3.3.1
#
DISCID=140db514
DTITLE=Tanya Tucker - The Best Of Tanya Tucker
DYEAR=1900
DGENRE=
TTITLE0=The Man That Turned My Mama On
TTITLE1=You Are So Beautiful
TTITLE2=Would You Lay With Me In a Field Of Stone
TTITLE3=Spring
TTITLE4=Love's The Answer
TTITLE5=Blood Red And Goin' Down
TTITLE6=Bed Of Roses
TTITLE7=What's You Mama's Name
TTITLE8=Delta Dawn
TTITLE9=Almost Persuaded
TTITLE10=How Can I Tell Him
TTITLE11=The Happiest Girl In The Whole U.S.A.
TTITLE12=Teddy Bear Song
TTITLE13=Guess I'll Have To Love Him More
TTITLE14=California Cotton Fields
TTITLE15=The Jamstown Ferry
TTITLE16=Greener Than The Grass (We Laid On)
TTITLE17=I Believe The South Is Gonna Rise Again
TTITLE18=Let Me Be There
TTITLE19=Smell The Flowers
EXTD=
EXTT0=
EXTT1=
EXTT2=
EXTT3=
EXTT4=
EXTT5=
EXTT6=
EXTT7=
EXTT8=
EXTT9=
EXTT10=
EXTT11=
EXTT12=
EXTT13=
EXTT14=
EXTT15=
EXTT16=
EXTT17=
EXTT18=
EXTT19=
PLAYORDER=
